<svg width="675" height="168" viewBox="0 0 675 168" fill="none" xmlns="http://www.w3.org/2000/svg">
<path d="M28.0388 16.2443C28.4232 14.7068 28.9036 13.6498 29.4802 13.0732C30.1208 12.4967 31.0497 12.1123 32.2669 11.9201C33.356 11.792 34.2208 11.6959 34.8615 11.6318C35.5021 11.5677 35.8224 11.0552 35.8224 10.0943C35.8224 9.00523 35.0536 8.4607 33.5161 8.4607C33.0677 8.4607 32.1068 8.55679 30.6333 8.74898C29.2239 8.94117 27.238 9.03727 24.6755 9.03727C22.4333 9.03727 20.6395 8.9732 19.2942 8.84507C17.9489 8.65289 17.084 8.5568 16.6997 8.5568C15.995 8.5568 15.4825 8.65289 15.1622 8.84507C14.8419 9.03726 14.6817 9.4857 14.6817 10.1904C14.6817 10.831 14.9059 11.2474 15.3544 11.4396C15.8028 11.6318 16.3153 11.792 16.8919 11.9201C17.4684 12.0482 17.9809 12.3045 18.4294 12.6888C18.8778 13.0092 19.102 13.6498 19.102 14.6107C19.102 15.2513 19.07 15.9881 19.0059 16.8209C18.9419 17.5896 18.8137 18.3264 18.6216 19.0311L8.62776 61.2164C8.30745 62.6898 7.79495 63.7469 7.09026 64.3875C6.44963 65.0281 5.64885 65.4445 4.68791 65.6367C3.6629 65.893 2.76602 66.0531 1.99727 66.1172C1.16445 66.1172 0.748047 66.6297 0.748047 67.6547C0.748047 68.6797 1.48477 69.1922 2.95821 69.1922C3.27853 69.1922 4.68791 69.0641 7.18635 68.8078C9.74886 68.5516 13.6567 68.4234 18.9098 68.4234C22.3692 68.4234 25.3161 68.5195 27.7505 68.7117C30.2489 68.9039 32.2669 69 33.8044 69C34.7013 69 35.374 68.9039 35.8224 68.7117C36.2708 68.4555 36.6232 67.8789 36.8794 66.982L39.2818 58.2375C39.6021 56.8281 39.7623 56.0593 39.7623 55.9312C39.7623 54.9062 39.4099 54.3937 38.7052 54.3937C38.2568 54.3937 37.9044 54.5859 37.6482 54.9703C37.3919 55.3546 37.1037 55.8992 36.7833 56.6039C36.5271 57.2445 36.1747 57.9812 35.7263 58.814C35.3419 59.6468 34.7333 60.5117 33.9005 61.4086C32.2989 63.1383 30.5693 64.2594 28.7114 64.7719C26.9177 65.2844 24.6755 65.5406 21.9848 65.5406C20.2552 65.5406 19.0059 65.3804 18.2372 65.0601C17.5325 64.7398 17.1801 64.0672 17.1801 63.0422C17.1801 62.4015 17.3403 61.3765 17.6606 59.9671L28.0388 16.2443Z" fill="white"/>
<path d="M87.6727 11.824C87.993 10.4146 88.1532 9.64586 88.1532 9.51774C88.1532 8.62086 87.7047 8.17242 86.8078 8.17242C86.6156 8.17242 85.911 8.26851 84.6938 8.4607C83.4766 8.58883 81.5867 8.65289 79.0242 8.65289H62.3999C59.6452 8.65289 57.6273 8.62086 56.346 8.5568C55.0647 8.42867 54.328 8.3646 54.1358 8.3646C53.4311 8.3646 52.9186 8.4607 52.5983 8.65289C52.3421 8.84508 52.214 9.22945 52.214 9.80602C52.214 10.4466 52.4382 10.831 52.8866 10.9591C53.3991 11.0873 53.9436 11.2474 54.5202 11.4396C55.0968 11.5677 55.6093 11.824 56.0577 12.2084C56.5702 12.5287 56.8265 13.2334 56.8265 14.3224C56.8265 14.9631 56.7944 15.6678 56.7304 16.4365C56.6663 17.2053 56.5382 17.942 56.346 18.6467L46.2561 61.2164C45.9358 62.7539 45.4553 63.8109 44.8147 64.3875C44.2381 64.964 43.4374 65.3805 42.4124 65.6367C41.3873 65.893 40.4905 66.0531 39.7217 66.1172C38.8889 66.1172 38.4725 66.6297 38.4725 67.6547C38.4725 68.6797 39.2092 69.1922 40.6827 69.1922C41.003 69.1922 42.6045 69.0961 45.4874 68.9039C48.4343 68.6476 53.1108 68.5195 59.5171 68.5195C64.514 68.5195 68.2937 68.5836 70.8562 68.7117C73.4187 68.8398 74.8601 68.9039 75.1805 68.9039H75.5648C76.6539 68.9039 77.3266 68.7437 77.5828 68.4234C77.8391 68.1031 78.0953 67.3664 78.3516 66.2133L80.3695 56.8921C80.4977 56.3796 80.5617 55.9953 80.5617 55.739C80.5617 55.4187 80.5617 55.1945 80.5617 55.0663C80.5617 54.746 80.4336 54.4578 80.1773 54.2015C79.9852 53.8812 79.793 53.721 79.6008 53.721C79.2164 53.721 78.8961 53.9452 78.6398 54.3937C78.3836 54.7781 78.1273 55.3226 77.8711 56.0273C77.6148 56.6679 77.2625 57.4367 76.814 58.3335C76.4297 59.1664 75.8851 60.0312 75.1805 60.9281C74.0273 62.4015 72.5859 63.5226 70.8562 64.2914C69.1906 65.0601 67.4929 65.4445 65.7632 65.4445H59.2288C57.9476 65.4445 56.9866 65.1562 56.346 64.5797C55.7694 64.0031 55.4812 63.0422 55.4812 61.6968C55.4812 61.1843 55.5452 60.3836 55.6733 59.2945C55.8655 58.2054 56.1538 56.8281 56.5382 55.1624L60.382 38.1538H68.1656C70.4078 38.1538 71.8812 38.5382 72.5859 39.3069C73.2906 40.0116 73.6429 41.2288 73.6429 42.9585C73.6429 44.3038 73.6109 45.3608 73.5469 46.1296C73.5469 46.8343 73.5469 47.2507 73.5469 47.3788C73.5469 48.4038 73.9312 48.9163 74.7 48.9163C75.3406 48.9163 75.757 48.4038 75.9492 47.3788C76.2055 46.3538 76.5578 44.7843 77.0062 42.6702C77.9031 38.1218 78.7359 34.6944 79.5047 32.3881C80.2734 30.0819 80.6578 28.6725 80.6578 28.16C80.6578 27.6475 80.5297 27.2311 80.2734 26.9108C80.0812 26.5905 79.825 26.4303 79.5047 26.4303C79.0562 26.4303 78.7039 26.6225 78.4476 27.0069C78.2555 27.3272 78.0633 27.7756 77.8711 28.3522C77.6789 28.9287 77.4226 29.5694 77.1023 30.2741C76.8461 30.9788 76.3976 31.6834 75.757 32.3881C74.8601 33.4131 73.8351 34.0858 72.682 34.4061C71.5929 34.6624 70.2156 34.7905 68.55 34.7905H61.2468L66.7242 11.5357C68.1976 11.4076 69.575 11.3115 70.8562 11.2474C72.1375 11.1834 73.3226 11.1513 74.4117 11.1513C77.5508 11.1513 79.6648 11.792 80.7539 13.0732C81.843 14.2904 82.3875 16.4365 82.3875 19.5115C82.3875 20.5365 82.4516 21.3053 82.5797 21.8178C82.7719 22.2662 83.1563 22.4904 83.7328 22.4904C84.5016 22.4904 85.0781 21.7858 85.4625 20.3764L87.6727 11.824Z" fill="white"/>
<path d="M122.095 13.6498C122.224 13.1373 122.288 12.7209 122.288 12.4006C122.288 12.0802 122.288 11.856 122.288 11.7279C122.288 11.0873 121.967 10.4787 121.327 9.90211C120.686 9.26149 119.853 8.71695 118.828 8.26851C117.867 7.82007 116.714 7.46773 115.369 7.21148C114.088 6.89117 112.774 6.73101 111.429 6.73101C108.802 6.73101 106.4 7.17945 104.222 8.07633C102.044 8.9732 100.186 10.2224 98.6484 11.824C97.1109 13.3615 95.9258 15.2514 95.0929 17.4935C94.2601 19.6717 93.8437 22.1061 93.8437 24.7967C93.8437 27.2311 94.2922 29.4733 95.189 31.5233C96.15 33.5092 97.3672 35.5592 98.8406 37.6733L103.165 43.9194C104.766 46.1616 106.048 48.2116 107.009 50.0695C108.034 51.8632 108.546 53.8171 108.546 55.9312C108.546 57.5328 108.258 59.0703 107.681 60.5437C107.169 61.9531 106.432 63.2023 105.471 64.2914C104.574 65.3805 103.485 66.2453 102.204 66.8859C100.923 67.5266 99.5133 67.8469 97.9758 67.8469C95.6695 67.8469 93.6836 67.2062 92.0179 65.925C90.4164 64.6437 89.4234 63.0422 89.039 61.1203C88.5265 58.3015 88.2382 56.3476 88.1742 55.2585C88.1101 54.1695 87.6617 53.6249 86.8288 53.6249C86.1882 53.6249 85.8359 53.9132 85.7718 54.4898C85.6437 55.0023 85.5476 55.707 85.4835 56.6039L85.0031 64.868V65.3484C85.0031 66.0531 85.1632 66.5976 85.4835 66.982C85.7398 67.3664 86.3163 67.7828 87.2132 68.2312C88.8789 69.0641 90.7367 69.6727 92.7867 70.057C94.8367 70.4414 96.6945 70.6336 98.3601 70.6336C100.859 70.6336 103.197 70.1531 105.375 69.1922C107.617 68.2312 109.539 66.918 111.141 65.2523C112.806 63.5226 114.12 61.5047 115.081 59.1984C116.041 56.8921 116.522 54.4257 116.522 51.7991C116.522 49.9413 116.362 48.2757 116.041 46.8023C115.721 45.3288 115.273 43.9835 114.696 42.7663C114.12 41.485 113.415 40.2679 112.582 39.1147C111.813 37.9616 110.948 36.8085 109.988 35.6553L104.126 28.2561C103.037 26.7826 102.172 25.4053 101.531 24.124C100.955 22.7787 100.666 21.3693 100.666 19.8959C100.666 16.949 101.595 14.4826 103.453 12.4967C105.311 10.4466 107.649 9.42164 110.468 9.42164C113.223 9.42164 115.145 10.2224 116.234 11.824C117.323 13.3615 117.867 15.6357 117.867 18.6467C117.867 19.6076 117.963 20.3443 118.156 20.8568C118.348 21.3053 118.732 21.5295 119.309 21.5295C120.141 21.5295 120.654 20.9529 120.846 19.7998L122.095 13.6498Z" fill="white"/>
<path d="M153.337 69H166.502V45.9374H182.165C195.715 45.9374 204.363 36.5202 204.363 23.6436C204.363 11.1513 195.907 1.73411 182.165 1.73411H153.337V69ZM166.502 34.1178V13.4576H179.763C186.778 13.4576 190.91 17.1092 190.91 23.6436C190.91 30.6584 187.066 34.1178 179.763 34.1178H166.502Z" fill="white"/>
<path d="M243.706 69.8648C265.038 69.8648 275.513 54.5859 275.513 35.3671C275.513 16.0521 265.038 0.869263 243.706 0.869263C222.277 0.869263 211.898 16.0521 211.898 35.3671C211.898 54.5859 222.277 69.8648 243.706 69.8648ZM243.706 57.8531C231.213 57.8531 225.352 48.9163 225.352 35.3671C225.352 21.8178 231.117 12.881 243.706 12.881C256.198 12.881 262.059 21.8178 262.059 35.3671C262.059 48.9163 256.198 57.8531 243.706 57.8531Z" fill="white"/>
<path d="M325.312 42.8624C333.576 39.8835 338.861 32.5803 338.861 22.7787C338.861 11.3435 330.597 1.73411 316.375 1.73411H286.874V69H300.039V44.3999H311.378L326.849 69H342.032V68.0391L325.312 42.8624ZM300.039 13.5537H315.703C322.333 13.5537 325.312 17.7818 325.312 22.8748C325.312 28.2561 322.429 32.6764 315.703 32.6764H300.039V13.5537Z" fill="white"/>
<path d="M365.472 69H378.733V13.6498H398.528V1.73411H345.676V13.6498H365.472V69Z" fill="white"/>
<path d="M446.556 42.8624C454.82 39.8835 460.105 32.5803 460.105 22.7787C460.105 11.3435 451.841 1.73411 437.619 1.73411H408.118V69H421.283V44.3999H432.622L448.093 69H463.276V68.0391L446.556 42.8624ZM421.283 13.5537H436.946C443.577 13.5537 446.556 17.7818 446.556 22.8748C446.556 28.2561 443.673 32.6764 436.946 32.6764H421.283V13.5537Z" fill="white"/>
<path d="M506.703 1.73411H489.983L466.44 68.0391V69H480.277L484.89 54.8742H511.22L515.832 69H530.342V68.0391L506.703 1.73411ZM488.734 43.2468L497.862 15.1873H498.247L507.376 43.2468H488.734Z" fill="white"/>
<path d="M539.403 69H552.664V1.73411H539.403V69Z" fill="white"/>
<path d="M581.965 69H595.226V13.6498H615.021V1.73411H562.17V13.6498H581.965V69Z" fill="white"/>
<path d="M647.29 69.8648C666.124 69.8648 674.484 61.6007 674.484 49.589C674.484 37.2889 665.836 31.8116 653.344 29.217L644.215 27.2951C637.68 25.8537 635.566 23.3553 635.566 19.8959C635.566 15.7639 639.122 12.6888 647.193 12.6888C655.842 12.6888 659.59 17.0131 659.974 22.2022H673.331C673.235 9.61383 662.472 0.869263 647.386 0.869263C631.818 0.869263 622.017 8.5568 622.017 19.8959C622.017 32.0999 630.281 37.0007 641.908 39.4991L651.71 41.6132C658.052 42.9585 660.935 45.3608 660.935 49.8773C660.935 54.9703 656.899 58.1414 647.29 58.1414C639.026 58.1414 633.74 54.3937 633.164 46.8023H619.807C620.479 60.7359 629.8 69.8648 647.29 69.8648Z" fill="white"/>
<path d="M76.355 155.373C75.9065 157.23 75.4901 158.736 75.1058 159.889C74.7214 160.978 73.7925 161.875 72.319 162.58C71.6143 162.964 70.9417 163.252 70.301 163.445C69.6604 163.573 69.1159 163.733 68.6674 163.925C68.219 164.053 67.8667 164.245 67.6104 164.502C67.3542 164.758 67.226 165.142 67.226 165.655C67.226 166.295 67.3542 166.712 67.6104 166.904C67.8026 167.096 68.251 167.192 68.9557 167.192C69.212 167.192 70.1409 167.096 71.7425 166.904C73.344 166.712 75.7784 166.616 79.0456 166.616C81.8003 166.616 84.2667 166.68 86.4449 166.808C88.6871 166.936 90.705 167 92.4988 167C97.1754 167 101.275 166.263 104.799 164.79C108.322 163.316 111.686 160.882 114.889 157.487C118.348 153.835 121.007 149.671 122.865 144.994C124.722 140.318 125.651 135.481 125.651 130.484C125.651 122.925 123.761 117.063 119.982 112.899C116.266 108.671 110.885 106.557 103.838 106.557C102.364 106.557 100.699 106.621 98.841 106.749C97.0472 106.877 95.0293 106.941 92.7871 106.941C89.9683 106.941 87.6941 106.845 85.9644 106.653C84.2988 106.461 83.1456 106.365 82.505 106.365C80.9675 106.365 80.1987 106.813 80.1987 107.71C80.1987 108.415 80.5511 108.831 81.2558 108.959C82.0245 109.087 82.9214 109.215 83.9464 109.344C85.3558 109.536 86.0605 110.593 86.0605 112.515C86.0605 112.579 86.0285 112.963 85.9644 113.668C85.9003 114.308 85.7081 115.237 85.3878 116.454L76.355 155.373ZM84.4269 156.718L93.748 117.8C94.1965 116.006 94.5808 114.565 94.9011 113.476C95.2215 112.322 95.6058 111.426 96.0543 110.785C96.5668 110.144 97.1754 109.728 97.8801 109.536C98.5847 109.279 99.5457 109.151 100.763 109.151C106.208 109.151 110.212 110.721 112.775 113.86C115.401 116.999 116.715 121.996 116.715 128.851C116.715 133.783 116.074 138.428 114.793 142.784C113.575 147.076 111.782 150.824 109.411 154.027C107.105 157.23 104.286 159.761 100.955 161.619C97.6879 163.477 94.0043 164.405 89.9043 164.405C87.6621 164.405 86.0925 164.117 85.1956 163.541C84.3628 162.9 83.9464 161.747 83.9464 160.081C83.9464 159.377 83.9784 158.768 84.0425 158.255C84.1706 157.743 84.2988 157.23 84.4269 156.718Z" fill="white"/>
<path d="M172.647 109.824C172.967 108.415 173.127 107.646 173.127 107.518C173.127 106.621 172.679 106.172 171.782 106.172C171.59 106.172 170.885 106.269 169.668 106.461C168.45 106.589 166.561 106.653 163.998 106.653H147.374C144.619 106.653 142.601 106.621 141.32 106.557C140.039 106.429 139.302 106.365 139.11 106.365C138.405 106.365 137.893 106.461 137.572 106.653C137.316 106.845 137.188 107.229 137.188 107.806C137.188 108.447 137.412 108.831 137.86 108.959C138.373 109.087 138.917 109.247 139.494 109.44C140.071 109.568 140.583 109.824 141.032 110.208C141.544 110.529 141.8 111.233 141.8 112.322C141.8 112.963 141.768 113.668 141.704 114.437C141.64 115.205 141.512 115.942 141.32 116.647L131.23 159.216C130.91 160.754 130.429 161.811 129.789 162.387C129.212 162.964 128.411 163.38 127.386 163.637C126.361 163.893 125.464 164.053 124.696 164.117C123.863 164.117 123.446 164.63 123.446 165.655C123.446 166.68 124.183 167.192 125.657 167.192C125.977 167.192 127.578 167.096 130.461 166.904C133.408 166.648 138.085 166.52 144.491 166.52C149.488 166.52 153.268 166.584 155.83 166.712C158.393 166.84 159.834 166.904 160.154 166.904H160.539C161.628 166.904 162.3 166.744 162.557 166.423C162.813 166.103 163.069 165.366 163.325 164.213L165.343 154.892C165.472 154.38 165.536 153.995 165.536 153.739C165.536 153.419 165.536 153.194 165.536 153.066C165.536 152.746 165.407 152.458 165.151 152.202C164.959 151.881 164.767 151.721 164.575 151.721C164.19 151.721 163.87 151.945 163.614 152.394C163.357 152.778 163.101 153.323 162.845 154.027C162.589 154.668 162.236 155.437 161.788 156.334C161.404 157.166 160.859 158.031 160.154 158.928C159.001 160.402 157.56 161.523 155.83 162.291C154.164 163.06 152.467 163.445 150.737 163.445H144.203C142.921 163.445 141.96 163.156 141.32 162.58C140.743 162.003 140.455 161.042 140.455 159.697C140.455 159.184 140.519 158.384 140.647 157.294C140.839 156.205 141.128 154.828 141.512 153.162L145.356 136.154H153.139C155.382 136.154 156.855 136.538 157.56 137.307C158.264 138.012 158.617 139.229 158.617 140.958C158.617 142.304 158.585 143.361 158.521 144.13C158.521 144.834 158.521 145.251 158.521 145.379C158.521 146.404 158.905 146.916 159.674 146.916C160.314 146.916 160.731 146.404 160.923 145.379C161.179 144.354 161.532 142.784 161.98 140.67C162.877 136.122 163.71 132.694 164.479 130.388C165.247 128.082 165.632 126.672 165.632 126.16C165.632 125.647 165.504 125.231 165.247 124.911C165.055 124.59 164.799 124.43 164.479 124.43C164.03 124.43 163.678 124.622 163.422 125.007C163.229 125.327 163.037 125.776 162.845 126.352C162.653 126.929 162.397 127.569 162.076 128.274C161.82 128.979 161.371 129.683 160.731 130.388C159.834 131.413 158.809 132.086 157.656 132.406C156.567 132.662 155.189 132.79 153.524 132.79H146.221L151.698 109.536C153.171 109.408 154.549 109.311 155.83 109.247C157.111 109.183 158.296 109.151 159.386 109.151C162.525 109.151 164.639 109.792 165.728 111.073C166.817 112.29 167.361 114.437 167.361 117.512C167.361 118.537 167.425 119.305 167.554 119.818C167.746 120.266 168.13 120.49 168.707 120.49C169.475 120.49 170.052 119.786 170.436 118.376L172.647 109.824Z" fill="white"/>
<path d="M225.423 167.865C244.258 167.865 252.618 159.601 252.618 147.589C252.618 135.289 243.969 129.812 231.477 127.217L222.348 125.295C215.814 123.854 213.7 121.355 213.7 117.896C213.7 113.764 217.255 110.689 225.327 110.689C233.976 110.689 237.723 115.013 238.108 120.202H251.465C251.369 107.614 240.606 98.8693 225.519 98.8693C209.952 98.8693 200.15 106.557 200.15 117.896C200.15 130.1 208.415 135.001 220.042 137.499L229.844 139.613C236.186 140.958 239.069 143.361 239.069 147.877C239.069 152.97 235.033 156.141 225.423 156.141C217.159 156.141 211.874 152.394 211.297 144.802H197.94C198.613 158.736 207.934 167.865 225.423 167.865Z" fill="white"/>
<path d="M291.424 167.865C312.757 167.865 323.231 152.586 323.231 133.367C323.231 114.052 312.757 98.8693 291.424 98.8693C269.995 98.8693 259.617 114.052 259.617 133.367C259.617 152.586 269.995 167.865 291.424 167.865ZM291.424 155.853C278.932 155.853 273.07 146.916 273.07 133.367C273.07 119.818 278.836 110.881 291.424 110.881C303.916 110.881 309.778 119.818 309.778 133.367C309.778 146.916 303.916 155.853 291.424 155.853Z" fill="white"/>
<path d="M361.211 167.865C377.259 167.865 388.982 158.736 388.982 141.247V99.7341H375.721V141.055C375.721 149.319 372.262 156.045 361.211 156.045C350.352 156.045 346.797 149.319 346.797 141.055V99.7341H333.632V141.247C333.632 158.736 345.452 167.865 361.211 167.865Z" fill="white"/>
<path d="M417.413 167H430.674V111.65H450.47V99.7341H397.618V111.65H417.413V167Z" fill="white"/>
<path d="M460.06 167H473.321V99.7341H460.06V167Z" fill="white"/>
<path d="M488.4 167H501.372V120.587H501.757L529.24 167H544.615V99.7341H531.546V146.436H531.162L503.679 99.7341H488.4V167Z" fill="white"/>
<path d="M559.814 167H606.419V155.277H572.978V138.172H603.44V126.448H572.978V111.554H606.419V99.7341H559.814V167Z" fill="white"/>
</svg>
