<svg width="85" height="80" viewBox="0 0 85 80" fill="none" xmlns="http://www.w3.org/2000/svg">
<path d="M21.4685 0.992381C20.6236 1.26359 19.8517 2.0355 19.5075 2.94301C19.0485 4.16346 19.3614 5.95762 20.1751 6.76082C21.1139 7.67876 22.9498 7.71006 23.7843 6.81298C23.9616 6.62522 24.0972 6.3853 24.0972 6.28099C24.0972 6.13495 24.1285 6.10366 24.2119 6.18711C24.358 6.33314 24.1285 8.00213 23.8781 8.58628C23.3879 9.74414 21.7397 10.7977 20.4254 10.8081C20.2377 10.8081 20.1333 10.8603 20.1333 10.9646C20.1333 11.1628 20.5089 11.1628 21.3642 10.9646C23.4087 10.4847 24.8587 8.94094 25.3489 6.73996C25.5471 5.83245 25.4428 3.8088 25.1507 3.06818C24.6292 1.74343 23.6904 1.00281 22.4386 0.940226C22.0631 0.919363 21.625 0.940226 21.4685 0.992381Z" fill="white"/>
<path d="M40.4324 4.92498C32.8281 6.10371 26.2356 12.1538 24.0555 19.9772C23.4609 22.0738 23.3357 23.0231 23.2836 25.6726C23.2314 28.5412 23.3566 29.7303 23.9407 32.1399C25.8914 40.1824 31.6702 45.8465 39.358 47.2338C41.1835 47.5572 44.1355 47.5572 46.0548 47.2234C55.8497 45.5335 62.5152 36.5106 62.1397 25.464C62.0667 23.4716 61.7955 21.5418 61.3782 20.1441C61.2322 19.6225 61.0653 19.0592 61.0131 18.8819C60.6167 17.5258 59.4067 15.1162 58.3323 13.5724C55.0465 8.81581 49.8205 5.52999 44.5006 4.8624C43.3636 4.71636 41.559 4.74765 40.4324 4.92498ZM45.3246 5.42568C49.7266 6.51052 52.1988 11.5279 52.8872 20.7908C53.2628 25.9334 53.0228 32.6302 52.3031 36.7609C51.8963 39.1184 51.1244 41.5697 50.3629 42.9362C49.9665 43.6455 49.1424 44.7721 48.7461 45.1372C47.2544 46.5349 44.9074 47.213 42.091 47.0774C40.5576 47.0043 39.817 46.8687 38.8052 46.4724C35.4567 45.1789 33.4435 41.0169 32.7133 33.8611C32.2231 29.0836 32.2231 23.5029 32.7133 18.7359C33.2662 13.3429 34.6327 9.45211 36.7189 7.36588C37.8038 6.28104 38.8469 5.70732 40.3698 5.37352C41.5068 5.12318 44.1981 5.15447 45.3246 5.42568Z" fill="white"/>
<path d="M0.627075 26.1419V45.8568H11.4755H22.3239V45.5961V45.3353H11.7884H1.25295V25.8812V6.42701H0.94001H0.627075V26.1419Z" fill="white"/>
<path d="M51.1661 55.1093L50.5819 56.0273L50.9053 56.0586C51.3017 56.1003 51.3642 56.0481 52.2196 55.0154L52.8976 54.2018H52.3239H51.7606L51.1661 55.1093Z" fill="white"/>
<path d="M69.5771 56.1941V57.9779L69.1182 57.498C68.2628 56.6218 66.9172 56.4862 65.9053 57.1955C64.8101 57.9466 64.3615 60.0954 64.9457 61.7644C65.1752 62.4216 65.9575 63.2143 66.5104 63.3708C67.5326 63.6524 68.3671 63.4542 69.0764 62.7449C69.3581 62.4633 69.6084 62.2338 69.6293 62.2338C69.6606 62.2338 69.6814 62.4946 69.6814 62.8075V63.3812H70.0987H70.5159V58.8958V54.4104H70.0465H69.5771V56.1941ZM68.6175 57.8423C69.3998 58.3951 69.7753 59.9181 69.4311 61.1177C69.0973 62.2547 68.0959 62.9431 67.178 62.6615C66.1766 62.359 65.6654 61.4932 65.6654 60.0954C65.6654 58.8332 66.0514 58.0196 66.8129 57.6858C67.2823 57.4667 68.2106 57.5502 68.6175 57.8423Z" fill="white"/>
<path d="M24.5144 59.2087V63.3812H24.9317H25.3489V59.9702C25.3489 58.0092 25.3906 56.601 25.4428 56.6531C25.4949 56.7157 25.8079 57.2998 26.1521 57.957C26.4963 58.6142 27.0805 59.7303 27.4456 60.4292L28.1132 61.7122H28.5304C28.812 61.7122 28.9894 61.6496 29.0624 61.5245C29.125 61.4306 29.7091 60.3145 30.3559 59.0523C31.0026 57.7901 31.5763 56.7157 31.618 56.6531C31.6702 56.601 31.7119 58.0613 31.7119 59.9702V63.3812H32.1813H32.6507V59.2087V55.0363H32.0874H31.5137L30.6062 56.7783C30.1055 57.7484 29.4692 58.9793 29.1876 59.5217C28.9059 60.0641 28.6347 60.5544 28.593 60.5961C28.5408 60.6483 27.8524 59.4174 27.0596 57.8631L25.6097 55.0363H25.0673H24.5144V59.2087Z" fill="white"/>
<path d="M43.4574 56.8201C42.3517 57.0913 41.7572 57.8215 41.8615 58.7603C41.9658 59.6886 42.5812 60.1268 44.2398 60.4501C45.3351 60.6587 45.6063 60.7735 45.8358 61.1073C46.3677 61.8583 45.5645 62.7554 44.365 62.7554C43.4574 62.745 42.5604 62.1191 42.5604 61.4724C42.5604 61.2325 42.3726 61.1699 41.9866 61.2742C41.7363 61.3472 41.6841 61.4098 41.7154 61.6184C41.778 62.067 42.2266 62.8076 42.5812 63.0371C43.4261 63.5899 45.0743 63.6421 45.9505 63.1309C46.6181 62.7345 46.8371 62.3382 46.8371 61.5141C46.8371 60.8882 46.8163 60.8361 46.4512 60.4606C46.0235 60.0433 45.4915 59.8347 44.2398 59.6156C43.1862 59.4383 42.8316 59.1775 42.7898 58.5934C42.7481 57.9884 43.0193 57.6963 43.7704 57.5398C44.7509 57.3312 45.575 57.7172 45.8045 58.4891C45.9192 58.8542 45.9609 58.8959 46.2843 58.8959C46.712 58.8959 46.7954 58.729 46.6285 58.2179C46.4616 57.7276 46.0652 57.2582 45.5854 57.0183C45.116 56.7783 44.0207 56.674 43.4574 56.8201Z" fill="white"/>
<path d="M50.2481 56.8096C48.9234 57.1434 48.1932 58.1865 48.1097 59.845C48.0263 61.4097 48.5479 62.5572 49.5701 63.1309C50.0708 63.4021 50.2168 63.4334 51.1139 63.4334C52.2613 63.4334 52.7516 63.2456 53.294 62.578C53.5861 62.2234 53.899 61.5349 53.8052 61.4619C53.7947 61.441 53.607 61.3993 53.4088 61.3576C53.0541 61.295 53.0333 61.3158 52.7829 61.7852C52.4178 62.4737 51.8128 62.7866 50.9366 62.7345C50.4046 62.7032 50.2168 62.6406 49.8935 62.3798C49.4241 62.0043 49.1216 61.441 49.0485 60.8151L48.9964 60.3562H51.4164H53.826V59.7512C53.826 58.9688 53.6904 58.4994 53.2732 57.8944C52.6682 56.9973 51.3643 56.5384 50.2481 56.8096ZM51.9484 57.6962C52.4282 57.9466 52.8142 58.5307 52.9394 59.24L53.0124 59.626H51.02C49.1529 59.626 49.0277 59.6156 49.0277 59.4278C49.0277 58.8854 49.5492 57.9674 49.9978 57.7275C50.5611 57.425 51.3851 57.4146 51.9484 57.6962Z" fill="white"/>
<path d="M57.2684 56.8513C55.8289 57.2373 55.13 58.2908 55.13 60.0954C55.13 61.3158 55.3699 62.0043 56.0167 62.6615C56.5904 63.2352 57.2475 63.4855 58.1446 63.4855C59.4694 63.4751 60.5751 62.7345 60.7837 61.7122C60.8254 61.4514 60.8046 61.3993 60.6481 61.3993C60.5334 61.3993 60.3456 61.368 60.2308 61.3367C60.0535 61.295 59.9909 61.3367 59.9492 61.5349C59.6154 62.8284 57.4249 63.1726 56.5591 62.0773C56.3296 61.7852 56.0167 60.8986 56.0167 60.5439C56.0167 60.3666 56.1731 60.3562 58.4784 60.3562H60.9506L60.888 59.6364C60.7733 58.2282 60.0327 57.1955 58.9061 56.8617C58.2802 56.674 57.9047 56.674 57.2684 56.8513ZM58.541 57.5398C59.292 57.7484 59.9701 58.6037 59.9805 59.3339V59.626H57.9986H56.0167L56.0792 59.3339C56.2983 58.343 56.7573 57.7484 57.4457 57.5606C57.9777 57.425 58.0925 57.4146 58.541 57.5398Z" fill="white"/>
<path d="M74.3441 56.8513C73.228 57.1643 72.5291 57.9883 72.2892 59.2818C72.0388 60.5961 72.4561 62.1191 73.2593 62.8075C74.219 63.6316 75.9192 63.7255 76.9623 63.0162C77.39 62.7241 77.7968 62.1504 77.8803 61.7123C77.9324 61.4515 77.9116 61.3993 77.7551 61.3993C77.6404 61.3993 77.4526 61.368 77.3379 61.3367C77.1605 61.295 77.098 61.3367 77.0562 61.5349C76.8059 62.5155 75.3872 63.0475 74.3128 62.5572C73.8121 62.3277 73.4679 61.8896 73.2697 61.222C72.9881 60.2832 72.8003 60.3562 75.5854 60.3562H78.0576L77.995 59.6365C77.8907 58.3639 77.2649 57.352 76.3365 56.9765C75.7732 56.7366 74.9178 56.6844 74.3441 56.8513ZM75.6793 57.5502C76.3991 57.7484 77.0771 58.6038 77.0875 59.334V59.626H75.0952H73.1028L73.1758 59.2818C73.3636 58.3952 73.9373 57.7067 74.6258 57.5502C75.2099 57.4251 75.2099 57.4251 75.6793 57.5502Z" fill="white"/>
<path d="M34.8622 59.4383C34.8935 61.7644 34.9143 62.0044 35.1125 62.3903C35.7905 63.6838 37.6994 63.8611 38.8156 62.745L39.2224 62.3382V62.6198C39.2224 63.2248 39.3267 63.3813 39.7022 63.3813H40.0569V60.1476V56.9139H39.6501H39.2433L39.2015 59.021C39.1598 60.8778 39.1285 61.2012 38.9407 61.6184C38.4296 62.7554 36.7502 63.0058 36.0409 62.0461C35.8531 61.7853 35.8323 61.5662 35.801 59.334L35.7592 56.9139H35.2898H34.8204L34.8622 59.4383Z" fill="white"/>
<path d="M24.5144 72.2477V76.7331H24.9838H25.4532V72.2477V67.7623H24.9838H24.5144V72.2477Z" fill="white"/>
<path d="M75.9402 68.5969V69.1184H76.4617H76.9833V68.5969V68.0753H76.4617H75.9402V68.5969Z" fill="white"/>
<path d="M32.7552 68.3777C31.4721 68.7741 30.575 69.9737 30.3456 71.5905C30.0222 73.8854 30.7732 75.7213 32.3275 76.4619C32.9533 76.754 33.1098 76.7853 34.0069 76.7853C35.2691 76.7748 35.8741 76.5349 36.6043 75.7317C37.3344 74.9389 37.5744 74.2505 37.6265 72.8214C37.71 71.0064 37.324 69.8903 36.333 69.014C36.0514 68.7741 35.6342 68.5342 35.3317 68.4403C34.7788 68.2734 33.2141 68.2421 32.7552 68.3777ZM35.2482 69.3583C35.7698 69.619 36.333 70.3597 36.5312 71.0273C36.5938 71.2672 36.6564 71.9765 36.6564 72.6128C36.6564 73.6455 36.6251 73.8228 36.3539 74.4174C35.8428 75.5544 34.977 76.0759 33.7461 75.9821C32.1606 75.8465 31.2844 74.6364 31.2635 72.5606C31.2635 71.1316 31.7016 70.0363 32.5361 69.4417C33.1933 68.9723 34.4137 68.9306 35.2482 69.3583Z" fill="white"/>
<path d="M27.6438 68.9098C27.6438 69.3583 27.6751 69.4314 27.8524 69.4314C28.0298 69.4314 28.0611 69.5044 28.0611 69.9321C28.0611 70.4432 27.8524 70.7874 27.5604 70.7874C27.4873 70.7874 27.4352 70.9022 27.4352 71.0482C27.4352 71.3507 27.696 71.3924 28.1549 71.1629C28.5722 70.9439 28.6869 70.5788 28.6869 69.4314V68.3882H28.1654H27.6438V68.9098Z" fill="white"/>
<path d="M62.5882 70.0676C62.4422 70.1302 62.2231 70.2658 62.098 70.391L61.8685 70.5996L61.4199 70.391C60.0952 69.7547 58.3115 70.1824 57.7899 71.2672C57.4248 72.0078 57.6021 73.1448 58.1446 73.5934C58.3532 73.7707 58.3636 73.9167 58.1654 73.9167C57.8733 73.9167 57.5813 74.4383 57.5813 74.9599C57.5813 75.3458 57.6334 75.4918 57.842 75.69C57.9881 75.8256 58.1028 75.9613 58.1028 76.003C58.1028 76.0343 57.9359 76.149 57.7273 76.2429C57.2475 76.4724 57.018 77.0148 57.1014 77.672C57.1432 78.0475 57.2475 78.2144 57.5708 78.5169C57.8003 78.7151 58.1863 78.9446 58.4262 79.0176C59.4797 79.3305 61.3156 79.2471 62.1084 78.8507C62.5256 78.6421 62.9846 78.2144 63.1724 77.8597C63.3914 77.4425 63.3601 76.6601 63.1098 76.2638C62.7447 75.6692 62.3275 75.544 60.4811 75.4814C58.6244 75.4084 58.4158 75.325 58.4158 74.6886C58.4158 74.1567 58.7183 74.0106 59.5423 74.1567C60.0952 74.2505 60.3247 74.2401 60.8775 74.0941C61.2426 74.0002 61.6912 73.8229 61.8581 73.6873C62.5048 73.2179 62.7864 72.0496 62.4213 71.3611C62.2753 71.0795 62.2753 71.0482 62.4422 70.923C62.5465 70.85 62.776 70.7874 62.9638 70.7874C63.2558 70.7874 63.308 70.7457 63.3706 70.4745C63.4123 70.3076 63.4123 70.1198 63.3706 70.0572C63.2871 69.932 62.9325 69.932 62.5882 70.0676ZM60.888 70.9647C61.8893 71.4341 61.9102 72.8319 60.9192 73.343C60.2099 73.7081 58.9478 73.416 58.6244 72.8215C58.4262 72.4459 58.4471 71.7992 58.6661 71.4654C59.0938 70.8187 60.1056 70.5892 60.888 70.9647ZM62.0354 76.4828C62.4735 76.8062 62.5048 77.4842 62.1084 77.9015C61.7433 78.277 60.9818 78.5065 60.0952 78.5065C58.7809 78.5065 57.9777 78.0683 57.9777 77.3382C57.9777 76.3889 58.3949 76.2012 60.3142 76.2429C61.5764 76.2638 61.7746 76.2951 62.0354 76.4828Z" fill="white"/>
<path d="M42.018 70.1615C41.4964 70.3179 40.9748 70.7143 40.6828 71.1629L40.4011 71.6218L40.3281 71.2254C40.2968 71.0168 40.2655 70.7143 40.2655 70.5474C40.2655 70.2866 40.2342 70.2658 39.8483 70.2658H39.431V73.4994V76.7331H39.9004H40.3698V74.9807C40.3698 73.0926 40.4846 72.3937 40.9018 71.8409C41.1835 71.4549 41.8719 71.1003 42.3309 71.1003C42.6647 71.1003 42.6647 71.1003 42.6647 70.5787C42.6647 70.0154 42.6125 69.9841 42.018 70.1615Z" fill="white"/>
<path d="M45.2203 70.1719C44.584 70.3284 44.0624 70.7456 43.7599 71.3402C43.4574 71.9557 43.4366 72.1017 43.6661 72.1851C44.1042 72.352 44.3024 72.2582 44.4797 71.7783C44.7196 71.1525 45.1994 70.8604 45.9922 70.8499C46.7641 70.8499 47.2127 71.0899 47.4734 71.6531C47.6508 72.0704 47.7446 72.7693 47.609 72.7693C47.2752 72.7693 44.8239 73.1135 44.5631 73.197C43.4679 73.5516 42.9776 74.7721 43.5096 75.8569C43.6765 76.2116 43.8434 76.368 44.2919 76.5871C44.7822 76.827 44.9595 76.8583 45.5124 76.8166C46.253 76.754 46.6702 76.5662 47.2648 76.0342C47.6716 75.6692 47.6716 75.6692 47.6716 75.9195C47.6716 76.4828 48.3184 76.9209 48.9129 76.7644C49.205 76.6914 49.2363 76.1073 48.9442 76.1073C48.5374 76.1073 48.5061 75.9299 48.5061 73.8333C48.5061 72.0182 48.4853 71.7679 48.2871 71.3089C47.8594 70.318 46.6077 69.8486 45.2203 70.1719ZM47.6716 73.9376C47.6612 75.1893 46.472 76.2429 45.2412 76.076C44.6779 76.0029 44.3649 75.7526 44.2189 75.2832C44.1146 74.939 44.125 74.8138 44.2919 74.4696C44.4171 74.2192 44.6257 74.0106 44.8552 73.8959C45.2099 73.7185 46.3469 73.5412 47.2335 73.5099L47.6716 73.4995V73.9376Z" fill="white"/>
<path d="M52.9498 70.1719C52.5013 70.2762 51.9275 70.6622 51.5624 71.0898L51.333 71.3611L51.3225 70.8082V70.2658H50.9053H50.488V73.4994V76.7331H50.9574H51.4268V74.6051C51.4268 72.2581 51.479 71.9765 52.0631 71.4341C52.9707 70.5891 54.4623 70.8499 54.7648 71.9139C54.817 72.1225 54.8691 73.3013 54.8691 74.5113V76.7331H55.3385H55.8079V74.3444C55.8079 72.4668 55.7766 71.8618 55.6515 71.5071C55.4741 71.0064 55.0778 70.537 54.6501 70.3179C54.2746 70.1197 53.4401 70.0467 52.9498 70.1719Z" fill="white"/>
<path d="M66.2183 70.2032C65.2482 70.464 64.5806 71.1003 64.2573 72.0913C64.0486 72.7067 64.0799 74.2714 64.3094 74.9494C64.7997 76.4411 66.4269 77.1713 68.1272 76.6706C68.7948 76.4724 69.6189 75.7109 69.7336 75.1685C69.8171 74.7721 69.8275 74.7929 69.3581 74.6991C69.0139 74.6365 68.9721 74.6573 68.92 74.8868C68.7427 75.5544 67.929 76.0968 67.0737 76.1073C66.041 76.1073 65.1752 75.3041 65.0292 74.1984L64.9561 73.7081H67.3762C69.5354 73.7081 69.7962 73.6872 69.8588 73.5308C69.9527 73.2804 69.7128 71.987 69.4833 71.528C69.1808 70.9543 68.5236 70.4014 67.8977 70.2241C67.251 70.0259 66.8859 70.0259 66.2183 70.2032ZM67.5431 70.9021C68.2628 71.1003 68.9408 71.9557 68.9513 72.6859V72.9779H66.9694C64.7684 72.9779 64.8727 73.0301 65.1543 72.2269C65.3525 71.6323 65.8845 71.0899 66.4165 70.923C66.9276 70.7665 67.0424 70.7665 67.5431 70.9021Z" fill="white"/>
<path d="M74.0208 70.1823C73.6349 70.2866 72.8108 70.996 72.5292 71.4654C72.4249 71.6427 72.404 71.601 72.404 71.1316C72.3936 70.3805 72.331 70.2658 71.9137 70.2658H71.5591V73.4994V76.7331H71.9763H72.3936V75.085C72.3936 73.416 72.5396 72.4772 72.863 71.9661C73.1342 71.5488 73.7183 71.1942 74.2399 71.1211L74.7406 71.0481V70.5787C74.7406 70.0467 74.6676 70.0154 74.0208 70.1823Z" fill="white"/>
<path d="M80.6446 70.2554C79.9457 70.5058 79.6119 70.7457 79.2572 71.2777C78.235 72.7798 78.5688 75.3354 79.9039 76.3055C80.9992 77.0983 82.9186 76.9627 83.7739 76.0343C84.0868 75.7109 84.3893 75.1581 84.3893 74.9286C84.3893 74.7721 83.6279 74.5844 83.5757 74.7304C83.2419 75.7109 82.3866 76.2221 81.3226 76.0656C80.4255 75.93 79.7996 75.2207 79.6327 74.1567L79.5701 73.7082L82.0006 73.6873L84.4415 73.656L84.4311 72.9675C84.4102 72.1748 84.1703 71.5385 83.6696 70.9752C82.9811 70.1824 81.6981 69.8799 80.6446 70.2554ZM82.1154 70.8917C82.8664 71.1004 83.5444 71.9557 83.5549 72.6859V72.978H81.5625H79.5701L79.6432 72.6337C79.9352 71.2568 80.9158 70.5684 82.1154 70.8917Z" fill="white"/>
<path d="M76.0444 73.4994V76.7331H76.4617H76.8789V73.4994V70.2658H76.4617H76.0444V73.4994Z" fill="white"/>
</svg>
