<svg width="64" height="64" viewBox="0 0 64 64" fill="none" xmlns="http://www.w3.org/2000/svg">
<circle cx="32" cy="32" r="31" stroke="white" stroke-width="2"/>
<path d="M41.2067 31.5308C41.1641 31.4911 41.1138 31.4596 41.0733 31.4177C39.8803 30.1856 38.3062 29.3424 36.6676 29.0146C36.2524 28.9014 35.8373 28.8096 35.4222 28.7391C35.0229 28.6713 34.8188 28.1785 35.0183 27.8261C36.2346 25.6773 35.7514 22.8696 33.8009 21.2146C31.6009 19.348 28.2676 19.6813 26.4009 21.8813C24.5342 24.0813 24.8676 27.4146 27.0676 29.2813C27.3604 29.5253 27.6531 29.7336 27.9459 29.88C28.1323 29.9732 28.2676 30.1552 28.2676 30.3636C28.2676 30.7875 27.7614 31.0068 27.4522 30.7169L27.2009 30.4813C26.2676 29.548 24.7342 29.548 23.7342 30.4813C22.8009 31.4146 22.7342 32.8813 23.6676 33.8146L26.6403 37.3044C26.7017 37.3764 26.7408 37.4644 26.7563 37.5577C26.9021 38.4367 27.2248 39.2557 27.6676 40.0146C27.9665 40.5528 28.3727 41.0909 28.79 41.5328C28.881 41.6292 28.9342 41.7558 28.9342 41.8884V42.948C28.9342 43.348 29.2009 43.6146 29.6009 43.6146H38.6676C39.0009 43.6146 39.3342 43.2813 39.3342 42.948V41.3945C39.3342 41.2782 39.3752 41.166 39.4472 41.0748C40.6405 39.5646 41.2676 37.6896 41.2676 35.8146V32.0095C41.2676 31.9686 41.2733 31.9279 41.2808 31.8878C41.314 31.7109 41.2811 31.6002 41.2067 31.5308ZM26.4676 25.2146C26.4676 23.0146 28.2676 21.2813 30.4676 21.348C32.6676 21.348 34.4009 23.148 34.3342 25.348C34.3342 26.1935 34.0694 26.9729 33.5864 27.6161C33.3359 27.9497 32.8676 27.7365 32.8676 27.3192V25.0146C32.8335 24.4369 32.5798 23.894 32.1583 23.4974C31.7369 23.1007 31.1796 22.8803 30.6009 22.8813C29.4009 22.8146 28.3342 23.8146 28.3342 25.0146V27.6071C28.3342 27.9938 27.9186 28.2207 27.6439 27.9485C26.9322 27.2434 26.5193 26.2491 26.4676 25.2146ZM40.0009 35.748C40.0676 37.4813 39.4676 39.148 38.3342 40.4813C38.2009 40.6146 38.0676 40.748 38.0676 40.948V41.848C38.0676 42.1241 37.8437 42.348 37.5676 42.348H30.8342C30.5581 42.348 30.3342 42.1241 30.3342 41.848V41.4146C30.3342 41.2146 30.2009 41.0146 30.0676 40.8813C29.6009 40.4813 29.2009 40.0146 28.8676 39.4146C28.4744 38.7593 28.21 37.9751 28.0745 37.1888C28.0698 37.1616 28.0682 37.1341 28.0655 37.1067C28.0555 37.0048 28.0107 36.903 27.9606 36.8011C27.9433 36.7657 27.9214 36.7327 27.896 36.7026L24.7342 32.948C24.5342 32.748 24.4009 32.4813 24.4009 32.148C24.4009 31.8813 24.5342 31.548 24.7342 31.348C25.2009 30.948 25.8676 30.948 26.3342 31.348L28.1211 33.1349C28.2149 33.2286 28.2676 33.3558 28.2676 33.4884V34.4531C28.2676 34.8294 28.6675 35.0708 29.0004 34.8956L29.2671 34.7552C29.4314 34.6688 29.5342 34.4984 29.5342 34.3128V25.0502C29.5342 25.0265 29.5357 25.0028 29.5399 24.9796C29.6211 24.5281 30.0143 24.1497 30.5342 24.2146C31.0009 24.2146 31.4676 24.548 31.4676 25.0146V32.2714C31.4676 32.5097 31.6358 32.715 31.8695 32.7617L32.2028 32.8284C32.5122 32.8902 32.8009 32.6536 32.8009 32.3381V30.0021C32.8009 29.9248 32.8317 29.8492 32.9009 29.8146C32.9701 29.7801 33.0444 29.7476 33.1217 29.7494C33.4049 29.7561 33.6881 29.7852 33.9713 29.8219C34.2181 29.8538 34.4009 30.0661 34.4009 30.315V32.8663C34.4009 33.107 34.5723 33.3134 34.8087 33.3578L34.8754 33.3703C35.1831 33.428 35.4676 33.1919 35.4676 32.8788V30.655C35.4676 30.3297 35.7733 30.0911 36.0888 30.17L36.2676 30.2146C36.4959 30.2603 36.7242 30.3373 36.9525 30.4241C37.1437 30.4967 37.2676 30.682 37.2676 30.8865V33.4663C37.2676 33.707 37.4389 33.9134 37.6754 33.9578L37.7421 33.9703C38.0498 34.028 38.3342 33.7919 38.3342 33.4788V31.784C38.3342 31.4222 38.7055 31.1858 39.0077 31.3848C39.2855 31.5677 39.546 31.7781 39.7895 32.0075C39.8837 32.0962 39.9356 32.2203 39.938 32.3496L40.0009 35.748Z" fill="white"/>
</svg>
