<svg width="40" height="40" viewBox="0 0 40 40" fill="none" xmlns="http://www.w3.org/2000/svg">
<rect width="40" height="40" rx="20" fill="white"/>
<path d="M10.5 12.2339H29.0581H29.5" stroke="black" stroke-width="1.76744"/>
<path d="M29.4999 12.2339C28.1744 12.3812 25.5232 11.7921 25.5232 8.2572" stroke="black" stroke-width="1.76744"/>
<path d="M29.4999 12.2542C28.1744 12.1069 25.5232 12.6961 25.5232 16.231" stroke="black" stroke-width="1.76744"/>
<path d="M18.4529 31.7428C18.2087 31.7428 17.9789 31.696 17.7635 31.6023C17.548 31.5093 17.3613 31.3837 17.2033 31.2257L13.9932 28.0156C13.706 27.7284 13.5442 27.3693 13.508 26.9384C13.4724 26.5075 13.5552 26.1198 13.7562 25.775C13.9429 25.4591 14.198 25.2364 14.5215 25.1072C14.8444 24.9779 15.1494 24.9492 15.4367 25.021L17.1171 25.4088V18.3854C17.1171 17.7821 17.3254 17.2723 17.7419 16.8557C18.1584 16.4392 18.6683 16.231 19.2715 16.231C19.8748 16.231 20.3847 16.4392 20.8012 16.8557C21.2177 17.2723 21.426 17.7821 21.426 18.3854V22.091H21.9861C22.0579 22.091 22.1226 22.1053 22.18 22.1341C22.2375 22.1628 22.3021 22.1915 22.3739 22.2202L25.5625 23.7714C25.9072 23.9294 26.1623 24.1842 26.3277 24.5358C26.4926 24.888 26.5391 25.2508 26.4673 25.6242L25.6917 30.3209C25.6199 30.7374 25.4188 31.0787 25.0885 31.3447C24.7581 31.6101 24.3847 31.7428 23.9682 31.7428H18.4529ZM18.4529 30.0193H23.9682L24.7869 25.3226L21.2105 23.556H19.7024V18.3854C19.7024 18.2561 19.6631 18.1518 19.5844 18.0726C19.5051 17.9938 19.4008 17.9545 19.2715 17.9545C19.1423 17.9545 19.038 17.9938 18.9587 18.0726C18.88 18.1518 18.8407 18.2561 18.8407 18.3854V27.5201L15.1781 26.7445L18.4529 30.0193Z" fill="black"/>
</svg>
